<?xml version="1.0" encoding="utf-8"?>
<!-- Generator: Adobe Illustrator 19.1.0, SVG Export Plug-In . SVG Version: 6.00 Build 0)  -->
<!DOCTYPE svg PUBLIC "-//W3C//DTD SVG 1.1//EN" "http://www.w3.org/Graphics/SVG/1.1/DTD/svg11.dtd">
<svg version="1.1" id="Layer_1" xmlns="http://www.w3.org/2000/svg" xmlns:xlink="http://www.w3.org/1999/xlink" x="0px" y="0px"
	 viewBox="0 0 253.4 10" enable-background="new 0 0 253.4 10" xml:space="preserve">
<g>
	<g>
		<path fill="#0064FF" d="M85.6,4.2h3.2v1.3h-3.2v4.3h-1.4V0.1h5.6v1.3h-4.2V4.2z"/>
		<path fill="#0064FF" d="M100.4,9.9l-1-2.5h-4.1l-1,2.5h-1.4l4-9.7h1l4,9.7H100.4z M97.3,2.4L95.8,6h3L97.3,2.4z"/>
		<path fill="#0064FF" d="M114.7,3.3l-2.8,4.5h-1L108,3.3v6.5h-1.4V0.1h1l3.8,5.9l3.8-5.9h1v9.7h-1.4V3.3z"/>
		<path fill="#0064FF" d="M122,9.9V0.1h1.4v9.7H122z"/>
		<path fill="#0064FF" d="M130.8,0.1v8.4h4.3v1.3h-5.7V0.1H130.8z"/>
		<path fill="#0064FF" d="M146.3,0.1L143,5.4v4.4h-1.4V5.4l-3.3-5.3h1.6l2.5,3.9l2.5-3.9H146.3z"/>
	</g>
	<g>
		<path fill="#0064FF" d="M160.9,9.9H158V0.1h2.9c1.4,0,2.5,0.3,3.3,0.9c0.6,0.5,1.1,1,1.4,1.7c0.3,0.7,0.5,1.4,0.5,2.2
			c0,0.8-0.2,1.5-0.5,2.2c-0.3,0.7-0.8,1.3-1.4,1.7C163.4,9.6,162.3,9.9,160.9,9.9z M164.8,5c0-1.1-0.4-2-1.2-2.7
			c-0.6-0.5-1.6-0.8-2.8-0.8h-1.5v7.1h1.5c1.2,0,2.1-0.3,2.8-0.8C164.4,7,164.8,6.1,164.8,5z"/>
		<path fill="#0064FF" d="M189.1,9.9l-5.8-7.1v7.1h-1.4V0.1h1l5.8,7.1V0.1h1.4v9.7H189.1z"/>
		<path fill="#0064FF" d="M195,1.5V0.1h6.7v1.3H199v8.4h-1.4V1.5H195z"/>
		<path fill="#0064FF" d="M206.6,9.9V0.1h1.4v9.7H206.6z"/>
		<path fill="#0064FF" d="M213.1,8.4l1-0.9c0.7,0.8,1.5,1.2,2.4,1.2c0.5,0,0.9-0.1,1.2-0.4c0.3-0.3,0.5-0.6,0.5-1
			c0-0.4-0.2-0.8-0.5-1.1c-0.3-0.3-0.8-0.5-1.5-0.8c-0.6-0.3-1.1-0.5-1.4-0.6c-0.8-0.5-1.2-1.3-1.2-2.1c0-0.7,0.3-1.3,0.8-1.8
			c0.6-0.5,1.3-0.8,2.1-0.8c1,0,1.8,0.3,2.6,1l-0.8,1c-0.5-0.4-1.1-0.7-1.7-0.7c-0.4,0-0.8,0.1-1.1,0.4c-0.3,0.2-0.5,0.6-0.5,1
			c0,0.4,0.2,0.7,0.5,0.9c0.3,0.2,0.8,0.5,1.4,0.8c0.6,0.3,1.1,0.5,1.4,0.7c0.8,0.6,1.3,1.3,1.3,2.2c0,0.8-0.3,1.5-0.9,2
			c-0.6,0.5-1.3,0.8-2.2,0.8C215.1,10,214,9.5,213.1,8.4z"/>
		<path fill="#0064FF" d="M223.5,1.5V0.1h6.7v1.3h-2.6v8.4h-1.4V1.5H223.5z"/>
		<path fill="#0064FF" d="M253.4,0.1L250,5.4v4.4h-1.4V5.4l-3.3-5.3h1.6l2.5,3.9l2.5-3.9H253.4z"/>
		<path fill="#0064FF" d="M172.3,4.2h3.2v1.3h-3.2v3h4.2v1.3h-5.6V0.1h5.6v1.3h-4.2V4.2z"/>
		<g>
			<path fill="#0064FF" d="M238.8,5.6h-2.3v4.3h-1.4V0.1h3.7c0.9,0,1.5,0.2,2,0.6c0.6,0.5,1,1.2,1,2.1c0,0.8-0.3,1.5-1,2.1
				C240.3,5.3,239.6,5.6,238.8,5.6z M236.5,4.2h2.2c0.6,0,1-0.1,1.3-0.4c0.3-0.3,0.4-0.6,0.4-1c0-0.4-0.1-0.7-0.4-1
				c-0.3-0.3-0.7-0.4-1.3-0.4h-2.2V4.2z"/>
			<g>
				<path fill="#0064FF" d="M242.1,9.9l-2.8-4.5c0.4-0.1-1.6,0-1.6,0l2.8,4.5H242.1z"/>
			</g>
		</g>
	</g>
	<g>
		<path fill="#0064FF" d="M14,9.9V0.1h1.4v9.7H14z"/>
		<path fill="#0064FF" d="M20.5,8.4l1-0.9c0.7,0.8,1.5,1.2,2.4,1.2c0.5,0,0.9-0.1,1.2-0.4c0.3-0.3,0.5-0.6,0.5-1
			c0-0.4-0.2-0.8-0.5-1.1c-0.3-0.3-0.8-0.5-1.5-0.8c-0.6-0.3-1.1-0.5-1.4-0.6C21.4,4.2,21,3.5,21,2.6c0-0.7,0.3-1.3,0.8-1.8
			C22.4,0.3,23.1,0,23.9,0c1,0,1.8,0.3,2.6,1l-0.8,1c-0.5-0.4-1.1-0.7-1.7-0.7c-0.4,0-0.8,0.1-1.1,0.4c-0.3,0.2-0.5,0.6-0.5,1
			c0,0.4,0.2,0.7,0.5,0.9c0.3,0.2,0.8,0.5,1.5,0.8c0.6,0.3,1.1,0.5,1.4,0.7c0.8,0.6,1.3,1.3,1.3,2.2c0,0.8-0.3,1.5-0.9,2
			c-0.6,0.5-1.3,0.8-2.2,0.8C22.5,10,21.4,9.5,20.5,8.4z"/>
		<path fill="#0064FF" d="M35.9,5.6h-2.3v4.3h-1.4V0.1h3.7c0.9,0,1.5,0.2,2,0.6c0.6,0.5,1,1.2,1,2.1c0,0.8-0.3,1.5-1,2.1
			C37.4,5.3,36.7,5.6,35.9,5.6z M33.6,4.2h2.2c0.6,0,1-0.1,1.3-0.4c0.3-0.3,0.4-0.6,0.4-1c0-0.4-0.1-0.7-0.4-1
			c-0.3-0.3-0.7-0.4-1.3-0.4h-2.2V4.2z"/>
		<path fill="#0064FF" d="M45.4,4.2h3.2v1.3h-3.2v3h4.2v1.3H44V0.1h5.6v1.3h-4.2V4.2z"/>
		<path fill="#0064FF" d="M65.8,1.5V0.1h6.7v1.3h-2.6v8.4h-1.4V1.5H65.8z"/>
		<g>
			<path fill="#0064FF" d="M58.7,5.6h-2.3v4.3H55V0.1h3.7c0.8,0,1.5,0.2,2,0.6c0.6,0.5,1,1.2,1,2.1c0,0.8-0.3,1.5-1,2.1
				C60.2,5.3,59.5,5.6,58.7,5.6z M56.4,4.2h2.2c0.6,0,1-0.1,1.3-0.4c0.3-0.3,0.4-0.6,0.4-1c0-0.4-0.1-0.7-0.4-1
				c-0.3-0.3-0.7-0.4-1.3-0.4h-2.2V4.2z"/>
			<g>
				<path fill="#0064FF" d="M62,9.9l-2.8-4.5c0.4-0.1-1.6,0-1.6,0l2.8,4.5H62z"/>
			</g>
		</g>
		<path fill="#0064FF" d="M7.4,4.6L7.4,4.6c-0.5,0-1-0.1-1.5-0.3C5.5,4.1,5.1,3.8,4.8,3.5L3.9,4.4c0.4,0.5,1,0.8,1.6,1.1
			c0.6,0.3,1.3,0.4,2,0.4v1.9C6.8,8.4,6,8.7,5,8.7c-1,0-1.9-0.3-2.6-1C1.7,7,1.4,6.1,1.4,5c0-1,0.3-1.9,1-2.6
			c0.7-0.7,1.5-1.1,2.5-1.1c0.5,0,1,0.1,1.5,0.3c0.5,0.2,0.9,0.5,1.2,0.8l0.9-0.9C8,1,7.5,0.7,6.9,0.4C6.3,0.1,5.6,0,4.9,0
			C3.5,0,2.3,0.5,1.4,1.4C0.5,2.4,0,3.6,0,5c0,1.4,0.5,2.6,1.4,3.6C2.4,9.5,3.6,10,5,10c0.7,0,1.4-0.2,2.1-0.5
			c0.7-0.3,1.2-0.8,1.7-1.3V4.6H7.4z"/>
	</g>
</g>
</svg>
